<svg xmlns="http://www.w3.org/2000/svg" xmlns:svg="http://www.w3.org/2000/svg" id="svg380" width="12" height="12" version="1.1"><metadata id="metadata386"/><path id="polygon2" d="M 2.5,0 2,0.5 1.5,1 1,1.5 0.5,2 0,2.5 v 1 1 1 1 L 0.5,7 1,7.5 v 1 1 L 1.5,10 2,10.5 2.5,11 3,11.5 3.5,12 h 1 1 1 1 1 L 9,11.5 9.5,11 10,10.5 10.5,10 11,9.5 v -1 -1 L 11.5,7 12,6.5 v -1 -1 -1 -1 L 11.5,2 11,1.5 10.5,1 10,0.5 9.5,0 h -1 -1 -1 -1 -1 -1 z m 2,3 h 1 1 1 L 8,3.5 8.5,4 9,4.5 v 1 L 8.5,6 8,6.5 7.5,7 h -1 -1 -1 L 4,6.5 3.5,6 3,5.5 v -1 L 3.5,4 4,3.5 Z M 5.5,4 5,4.5 v 1 L 5.5,6 h 1 L 7,5.5 v -1 L 6.5,4 Z m -1,4 h 1 1 1 L 8,8.5 7.5,9 h -1 -1 -1 L 4,8.5 Z" style="fill:#fff"/></svg>