<svg xmlns="http://www.w3.org/2000/svg" xmlns:svg="http://www.w3.org/2000/svg" id="svg192" width="10" height="10" version="1.1"><metadata id="metadata198"/><path id="polygon2" d="M 0.5,0 0,0.5 v 1 1 1 1 1 1 1 1 1 L 0.5,10 1,9.5 v -1 -1 -1 -1 -1 -1 -1 -1 -1 z M 9.5,0 9,0.5 v 1 1 1 1 1 1 1 1 1 L 9.5,10 10,9.5 v -1 -1 -1 -1 -1 -1 -1 -1 -1 z M 4.5,1 4,1.5 3.5,2 3,2.5 3.5,3 h 1 1 1 L 7,2.5 6.5,2 6,1.5 5.5,1 Z M 4.5,4 4,4.5 3.5,5 3,5.5 3.5,6 h 1 1 1 L 7,5.5 6.5,5 6,4.5 5.5,4 Z M 4.5,7 4,7.5 3.5,8 3,8.5 3.5,9 h 1 1 1 L 7,8.5 6.5,8 6,7.5 5.5,7 Z" style="fill:#fff"/></svg>