<svg xmlns="http://www.w3.org/2000/svg" xmlns:svg="http://www.w3.org/2000/svg" id="svg252" width="10" height="10" version="1.1"><metadata id="metadata258"/><path id="polygon2" d="M 1.5,0 1,0.5 0.5,1 0,1.5 v 1 1 1 1 1 1 1 L 0.5,9 1,9.5 1.5,10 h 1 1 1 1 1 1 1 L 9,9.5 9.5,9 10,8.5 v -1 -1 -1 -1 -1 -1 -1 L 9.5,1 9,0.5 8.5,0 h -1 -1 -1 -1 -1 -1 z m 1,1 h 1 1 1 1 1 L 8,1.5 8.5,2 9,2.5 v 1 1 1 1 1 L 8.5,8 8,8.5 7.5,9 h -1 -1 -1 -1 -1 L 2,8.5 1.5,8 1,7.5 v -1 -1 -1 -1 -1 L 1.5,2 2,1.5 Z M 4.5,3 4,3.5 3.5,4 3,4.5 v 1 L 3.5,6 4,6.5 4.5,7 h 1 L 6,6.5 6.5,6 7,5.5 v -1 L 6.5,4 6,3.5 5.5,3 Z" style="fill:#fff"/></svg>