<svg xmlns="http://www.w3.org/2000/svg" xmlns:svg="http://www.w3.org/2000/svg" id="svg310" width="10" height="13" version="1.1"><metadata id="metadata316"/><path id="polygon2" d="M 0.5,0 0,0.5 v 1 1 1 1 1 1 1 1 1 1 1 1 L 0.5,13 h 1 1 1 1 1 1 1 1 1 L 10,12.5 v -1 -1 -1 -1 -1 -1 -1 -1 -1 -1 L 9.5,2 9,1.5 8.5,1 8,0.5 7.5,0 h -1 -1 -1 -1 -1 -1 z m 1,1 h 1 1 1 L 5,1.5 v 1 1 1 L 5.5,5 h 1 1 1 L 9,5.5 v 1 1 1 1 1 1 L 8.5,12 h -1 -1 -1 -1 -1 -1 -1 L 1,11.5 v -1 -1 -1 -1 -1 -1 -1 -1 -1 -1 z m 5,0 h 1 L 8,1.5 8.5,2 9,2.5 v 1 L 8.5,4 h -1 -1 L 6,3.5 v -1 -1 z M 6.5,6 6,6.5 v 1 L 6.5,8 h 1 L 8,7.5 v -1 L 7.5,6 Z M 4.5,7 4,7.5 3.5,8 3,8.5 v 1 L 2.5,10 2,10.5 2.5,11 h 1 1 1 1 L 7,10.5 6.5,10 6,9.5 5.5,9 5,8.5 v -1 z" style="fill:#fff"/></svg>