<svg xmlns="http://www.w3.org/2000/svg" xmlns:svg="http://www.w3.org/2000/svg" id="svg300" width="12" height="12" version="1.1"><metadata id="metadata306"/><path id="polygon2" d="M 0.5,0 0,0.5 v 1 1 1 1 1 1 1 1 1 1 1 L 0.5,12 h 1 1 1 1 1 1 1 1 1 1 1 L 12,11.5 v -1 -1 -1 -1 -1 -1 -1 -1 -1 -1 -1 L 11.5,0 h -1 -1 -1 -1 -1 -1 -1 -1 -1 -1 z m 2,2 h 1 1 1 1 1 1 1 L 10,2.5 v 1 1 1 1 1 1 1 L 9.5,10 h -1 -1 -1 -1 -1 -1 -1 L 2,9.5 v -1 -1 -1 -1 -1 -1 -1 z M 5.5,3 5,3.5 v 1 L 5.5,5 h 1 L 7,4.5 v -1 L 6.5,3 Z M 5.5,6 5,6.5 v 1 1 L 5.5,9 h 1 L 7,8.5 v -1 -1 L 6.5,6 Z" style="fill:#fff"/></svg>