<svg xmlns="http://www.w3.org/2000/svg" xmlns:svg="http://www.w3.org/2000/svg" id="svg542" width="16" height="16" version="1.1"><metadata id="metadata548"/><path id="polygon2" d="M 5.5 0 L 5 0.5 L 4.5 1 L 3.5 1 L 3 1.5 L 2.5 2 L 2 2.5 L 1.5 3 L 1 3.5 L 1 4.5 L 0.5 5 L 0 5.5 L 0 6.5 L 0 7.5 L 0 8.5 L 0 9.5 L 0 10.5 L 0.5 11 L 1 11.5 L 1 12.5 L 1.5 13 L 2 13.5 L 2.5 14 L 3 14.5 L 3.5 15 L 4.5 15 L 5 15.5 L 5.5 16 L 6.5 16 L 7.5 16 L 8.5 16 L 9.5 16 L 10.5 16 L 11 15.5 L 11.5 15 L 12.5 15 L 13 14.5 L 13.5 14 L 14 13.5 L 14.5 13 L 15 12.5 L 15 11.5 L 15.5 11 L 16 10.5 L 16 9.5 L 16 8.5 L 16 7.5 L 16 6.5 L 16 5.5 L 15.5 5 L 15 4.5 L 15 3.5 L 14.5 3 L 14 2.5 L 13.5 2 L 13 1.5 L 12.5 1 L 11.5 1 L 11 0.5 L 10.5 0 L 9.5 0 L 8.5 0 L 7.5 0 L 6.5 0 L 5.5 0 z M 6.5 1 L 7 1.5 L 7.5 2 L 8.5 2 L 9 2.5 L 9 3.5 L 9.5 4 L 10 4.5 L 10.5 5 L 11 5.5 L 11.5 6 L 12.5 6 L 13.5 6 L 14.5 6 L 15 6.5 L 15 7.5 L 15 8.5 L 15 9.5 L 14.5 10 L 14 10.5 L 14 11.5 L 13.5 12 L 13 12.5 L 12.5 13 L 12 13.5 L 11.5 14 L 10.5 14 L 10 14.5 L 9.5 15 L 8.5 15 L 8 14.5 L 7.5 14 L 7 13.5 L 7 12.5 L 7.5 12 L 8 11.5 L 8.5 11 L 9 10.5 L 9 9.5 L 9 8.5 L 8.5 8 L 8 7.5 L 7.5 7 L 6.5 7 L 5.5 7 L 4.5 7 L 4 7.5 L 3.5 8 L 3 8.5 L 2.5 9 L 2 9.5 L 1.5 10 L 1 9.5 L 1 8.5 L 1 7.5 L 1 6.5 L 1.5 6 L 2 5.5 L 2 4.5 L 2.5 4 L 3 3.5 L 3.5 3 L 4 2.5 L 4.5 2 L 5.5 2 L 6 1.5 L 6.5 1 z M 11.5 9 L 11 9.5 L 11 10.5 L 11.5 11 L 12.5 11 L 13 10.5 L 13 9.5 L 12.5 9 L 11.5 9 z" style="fill:#fff"/></svg>